<svg version="1.1" viewBox="0.0 0.0 128.0 128.0" fill="none" stroke="none" stroke-linecap="square" stroke-miterlimit="10"
  xmlns:xlink="http://www.w3.org/1999/xlink"
  xmlns="http://www.w3.org/2000/svg">
  <clipPath id="p.0">
    <path d="m0 0l128.0 0l0 128.0l-128.0 0l0 -128.0z" clip-rule="nonzero"/>
  </clipPath>
  <g clip-path="url(#p.0)">
    <path fill="#000000" fill-opacity="0.0" d="m0 0l128.0 0l0 128.0l-128.0 0z" fill-rule="evenodd"/>
    <path class="theme-icon-color" fill="#0f0" d="m128.0 64.0l-25.82666 9.18457l0 -18.36914zm-18.749626 -45.256294l-11.764397 24.759085l-12.98877 -12.988768zm-45.250374 -18.743704l9.18457 25.82666l-18.36914 0zm-45.256294 18.743704l24.759085 11.770317l-12.988768 12.988768zm-18.743704 45.256294l25.82666 -9.18457l0 18.36914zm18.743704 45.250374l11.770317 -24.753166l12.988768 12.98877zm45.256294 18.749626l-9.18457 -25.82666l18.36914 0zm45.250374 -18.749626l-24.753166 -11.764397l12.98877 -12.98877zm-77.250374 -45.250374l0 0c0 -17.673111 14.326889 -32.0 32.0 -32.0c17.673111 0 32.0 14.326889 32.0 32.0c0 17.673111 -14.326889 32.0 -32.0 32.0c-17.673111 0 -32.0 -14.326889 -32.0 -32.0z" fill-rule="evenodd"/>
  </g>
</svg>